<?xml version="1.0"?>
<svg width="33" height="32" xmlns="http://www.w3.org/2000/svg" xmlns:svg="http://www.w3.org/2000/svg">
 <g class="layer">
  <title>Layer 1</title>
  <path d="m14.36,14.2c0.58,1.82 -0.72,2.39 -1.34,2.49c-0.92,0.17 -1.12,-0.78 -0.94,-1.98c0.07,-0.43 0.19,-0.82 0.38,-1.11c0.18,-0.29 0.41,-0.48 0.66,-0.51c0.24,-0.05 0.48,0.03 0.7,0.24c0.22,0.19 0.4,0.49 0.53,0.87z" fill="#ffffff" id="svg_1" radialshift="1" starRadiusMultiplier="21"/>
  <path d="m22.12,13.95c-0.43,3.47 5.42,2.74 5.31,5.5c0.58,-0.78 0.82,-2.91 -0.87,-4c-1.51,-0.98 -3.48,-0.44 -4.43,-1.5z" fill="#ffffff" id="svg_2" radialshift="1" starRadiusMultiplier="21" transform="rotate(32.5835 24.974 16.7)"/>
  <path d="m23.61,9.71c-0.06,-0.06 -0.13,-0.11 -0.19,-0.17c0.06,0.06 0.13,0.12 0.19,0.17z" fill="#ffffff" id="svg_3" radialshift="1" starRadiusMultiplier="21"/>
  <path d="m26.02,13.86l-0.01,0c-0.09,-0.06 -0.21,-0.12 -0.34,-0.17c-0.37,-0.16 -0.9,-0.28 -1.5,-0.33c-0.4,-0.03 -0.82,-0.06 -1.22,-0.06c-0.43,-0.01 -0.86,-0.01 -1.28,-0.02c-0.87,-0.01 -1.76,-0.04 -2.62,-0.13c-0.22,-0.02 -0.43,-0.04 -0.65,-0.07c-0.1,-0.01 -0.21,-0.03 -0.31,-0.04c-0.1,-0.01 -0.22,-0.03 -0.32,-0.05c-0.4,-0.07 -0.79,-0.16 -1.12,-0.27c-0.67,-0.2 -1.19,-0.43 -1.72,-0.65c-0.5,-0.22 -1.03,-0.43 -1.59,-0.64c-0.55,-0.2 -1.21,-0.37 -1.94,-0.49c-0.76,-0.13 -1.58,-0.2 -2.44,-0.23c0.88,-0.03 1.77,0 2.6,0.1c0.83,0.1 1.59,0.26 2.25,0.46c0.42,0.13 0.82,0.27 1.19,0.41c2.75,-0.18 4.98,-0.02 6.69,0.28l0.05,0.01c0.54,0.1 1.05,0.21 1.53,0.34c0.07,0.02 0.15,0.04 0.22,0.06c0.36,0.11 0.7,0.23 1.02,0.35l0.02,0.01c1.01,0.42 1.51,0.85 1.51,1.11z" fill="#ffffff" id="svg_4" radialshift="1" starRadiusMultiplier="21"/>
  <path d="m25.82,13.66l-0.01,-0.01l0.01,0.01z" fill="#ffffff" id="svg_5" radialshift="1" starRadiusMultiplier="21"/>
  <path d="m14.96,17.64c0.32,0.09 0.65,0.33 0.87,0.79c0.21,0.47 0.3,1.07 0.35,1.64c0.05,0.45 0.09,0.9 0.19,1.32c0.04,0.21 0.11,0.39 0.17,0.58c0.04,0.16 0.13,0.31 0.16,0.48c0.01,0.03 0.01,0.05 0.01,0.08c0,0.03 -0.01,0.05 -0.02,0.07c-0.11,0.24 -0.42,-0.02 -0.54,-0.13c-0.2,-0.18 -0.38,-0.44 -0.53,-0.75c-0.47,-0.97 -0.7,-2.36 -0.69,-3.62c0.01,-0.16 0.01,-0.31 0.03,-0.46z" fill="#ffffff" id="svg_6" radialshift="1" starRadiusMultiplier="21" transform="rotate(-53.9059 15.819 20.1675)"/>
  <path d="m20.3,18.85c-1.47,3.87 5.16,6.46 2.68,10.41c2.53,-1 3.75,-4.02 2.69,-6.42c-0.92,-2.09 -3.66,-2.86 -5.37,-3.99z" fill="#ffffff" id="svg_7" radialshift="1" starRadiusMultiplier="21" transform="rotate(62.3347 23.0697 24.0545)"/>
  <path d="m21.85,28.08c-0.13,0.11 -0.27,0.22 -0.41,0.32c-0.15,0.1 -0.3,0.18 -0.46,0.26c-0.33,0.16 -0.69,0.24 -1.06,0.24c-1,-0.02 -1.7,-0.77 -2.12,-1.61c-0.28,-0.57 -0.47,-1.19 -0.81,-1.74c-0.47,-0.78 -1.29,-1.41 -2.25,-1.3c-0.39,0.05 -0.75,0.23 -0.97,0.57c-0.57,0.89 0.25,2.13 1.29,1.95c0.09,-0.01 0.18,-0.03 0.26,-0.07c0.09,-0.03 0.16,-0.08 0.23,-0.14c0.15,-0.12 0.26,-0.28 0.32,-0.46c0.07,-0.19 0.08,-0.39 0.04,-0.59c-0.04,-0.2 -0.16,-0.38 -0.33,-0.5c0.2,0.1 0.36,0.27 0.43,0.47c0.09,0.22 0.11,0.45 0.07,0.67c-0.05,0.24 -0.15,0.46 -0.3,0.64c-0.08,0.09 -0.18,0.17 -0.28,0.24c-0.11,0.06 -0.22,0.12 -0.33,0.16c-0.24,0.08 -0.49,0.1 -0.74,0.07c-0.34,-0.05 -0.67,-0.19 -0.94,-0.41c-0.33,-0.26 -0.57,-0.59 -0.86,-0.88c-0.33,-0.35 -0.73,-0.64 -1.16,-0.85c-0.3,-0.14 -0.62,-0.23 -0.94,-0.3c-0.16,-0.03 -0.33,-0.05 -0.49,-0.07c-0.08,-0.01 -0.44,-0.09 -0.5,-0.05c0.51,-0.46 1.06,-0.88 1.65,-1.24c0.61,-0.36 1.26,-0.64 1.94,-0.83c0.7,-0.2 1.44,-0.26 2.16,-0.17c0.38,0.05 0.74,0.14 1.09,0.29c0.37,0.14 0.7,0.35 1,0.61c0.29,0.28 0.52,0.61 0.69,0.97c0.15,0.34 0.26,0.7 0.33,1.07c0.22,1.09 0.14,2.79 1.57,3.04c0.07,0.02 0.15,0.03 0.22,0.03l0.23,0.01c0.16,-0.01 0.32,-0.04 0.48,-0.07c0.33,-0.08 0.64,-0.19 0.95,-0.33z" fill="#ffffff" id="svg_9" radialshift="1" starRadiusMultiplier="21"/>
  <path d="m13.55,26.89l-0.03,-0.03l0.03,0.03z" fill="#ffffff" id="svg_10" radialshift="1" starRadiusMultiplier="21"/>
  <path d="m12.3,19.1c-0.02,0.09 -0.06,0.17 -0.11,0.25c-0.1,0.13 -0.22,0.24 -0.36,0.3c-0.13,0.06 -0.27,0.1 -0.41,0.11c-0.03,0 -0.07,0.01 -0.1,0.01c-0.09,0 -0.17,0.04 -0.24,0.1c-0.07,0.06 -0.12,0.14 -0.14,0.23c-0.01,0.04 -0.02,0.09 -0.02,0.14c-0.01,0.12 -0.02,0.25 -0.03,0.4c-0.03,0.26 -0.1,0.51 -0.21,0.74c-0.14,0.32 -0.3,0.57 -0.26,0.93c0.02,0.23 0.14,0.39 0.29,0.55c0.27,0.3 0.88,0.43 0.75,1.16c-0.08,0.43 -0.76,0.89 -1.71,1.05c0.1,-0.02 -0.12,-0.4 -0.13,-0.43c-0.1,-0.17 -0.22,-0.33 -0.29,-0.51c-0.16,-0.36 -0.24,-0.77 -0.17,-1.16c0.07,-0.41 0.36,-0.73 0.6,-1.04c0.28,-0.38 0.58,-0.87 0.65,-1.35c0.02,-0.12 0.03,-0.27 0.05,-0.41c0.02,-0.16 0.07,-0.32 0.14,-0.47c0.05,-0.1 0.11,-0.18 0.19,-0.25c0.04,-0.04 0.07,-0.09 0.07,-0.15c0.01,-0.06 0,-0.11 -0.03,-0.16l-1.52,-2.9l2.18,2.86c0.02,0.03 0.06,0.06 0.1,0.08c0.03,0.02 0.07,0.03 0.11,0.03c0.04,0 0.08,-0.01 0.12,-0.03c0.04,-0.02 0.07,-0.04 0.1,-0.07c0.03,-0.04 0.05,-0.08 0.05,-0.12c0,-0.04 -0.01,-0.09 -0.04,-0.12c-0.14,-0.2 -0.29,-0.39 -0.44,-0.59l-0.55,-0.72l-1.1,-1.44l-1.5,-2l1.64,1.87l1.17,1.37l0.59,0.69c0.19,0.23 0.39,0.46 0.58,0.7l0.03,0.04l0.01,0.06c0.01,0.09 0,0.18 -0.02,0.26z" fill="#ffffff" id="svg_11" radialshift="1" starRadiusMultiplier="21"/>
  <path d="m13.49,26.85c-0.26,-0.2 -0.49,-0.43 -0.68,-0.69c0.21,0.25 0.43,0.48 0.68,0.69z" fill="#ffffff" id="svg_12" radialshift="1" starRadiusMultiplier="21"/>
  <path d="m20.85,16.36c0.58,1.82 -0.72,2.39 -1.34,2.49c-0.92,0.17 -1.12,-0.78 -0.94,-1.98c0.07,-0.43 0.19,-0.82 0.38,-1.11c0.18,-0.29 0.41,-0.48 0.66,-0.51c0.24,-0.05 0.48,0.03 0.7,0.24c0.22,0.19 0.4,0.49 0.53,0.87z" fill="#ffffff" id="svg_14" radialshift="1" starRadiusMultiplier="21"/>
 </g>
</svg>