<?xml version="1.0"?>
<svg width="99" height="16" xmlns="http://www.w3.org/2000/svg" xmlns:svg="http://www.w3.org/2000/svg">
 <mask height="16" id="path-1-outside-1" maskUnits="userSpaceOnUse" width="99" x="-0.49" y="-0.04">
  <rect fill="white" height="16" id="svg_1" width="99" x="-0.49" y="-0.04"/>
  <path clip-rule="evenodd" d="m46.18,1.05c-2.27,0.58 -3.34,2.36 -2.69,4.51c0.27,0.92 1.13,1.85 2.33,2.55c2.17,1.25 2.81,1.76 3.18,2.52c0.31,0.64 0.34,0.85 0.18,1.43c-0.36,1.36 -1.32,2.11 -2.69,2.11c-1.4,0 -2.38,-0.79 -2.6,-2.08c-0.09,-0.52 -0.2,-0.69 -0.45,-0.69c-0.3,0 -0.33,0.14 -0.33,1.46l0,1.45l0.91,0.31c1.42,0.48 3.44,0.42 4.65,-0.13c2.34,-1.09 3.24,-3.24 2.19,-5.26c-0.39,-0.75 -1.38,-1.59 -3.08,-2.61c-1.78,-1.08 -2.57,-1.86 -2.69,-2.65c-0.18,-1.22 0.92,-2.23 2.42,-2.23c1.18,0.01 1.68,0.28 2.1,1.16c0.26,0.55 0.44,0.73 0.75,0.73c0.34,0.01 0.4,-0.06 0.31,-0.38c-0.06,-0.21 -0.11,-0.75 -0.11,-1.19c0,-0.56 -0.08,-0.83 -0.27,-0.9c-0.5,-0.2 -3.46,-0.27 -4.11,-0.11zm-45.67,0.52c0,0.25 0.11,0.34 0.41,0.34c0.83,0 0.88,0.24 0.97,5.25c0.08,4.37 0.11,4.72 0.46,5.37c0.5,0.92 1.18,1.54 2.23,2.01c0.71,0.33 1.16,0.4 2.59,0.4c1.56,0 1.84,-0.05 2.73,-0.48c0.54,-0.27 1.22,-0.77 1.51,-1.12c0.99,-1.19 1.09,-1.77 1.2,-6.65c0.11,-4.69 0.13,-4.77 0.93,-4.78c0.19,0 0.3,-0.13 0.3,-0.34c0,-0.33 -0.11,-0.35 -2.08,-0.35c-1.94,0 -2.07,0.02 -2.07,0.34c0,0.25 0.14,0.34 0.55,0.38c0.92,0.09 1,0.45 1,4.73c0,4.34 -0.14,5.18 -1.07,6.06c-0.87,0.81 -1.56,1.09 -2.73,1.09c-1.7,0 -2.9,-0.79 -3.29,-2.16c-0.13,-0.46 -0.18,-2.15 -0.15,-5.09l0.06,-4.4l0.6,-0.19c0.34,-0.11 0.63,-0.32 0.66,-0.48c0.05,-0.25 -0.22,-0.28 -2.38,-0.28c-2.32,0 -2.43,0.02 -2.43,0.35zm16.1,0c0,0.26 0.12,0.34 0.51,0.34c0.89,0 1.38,0.34 1.58,1.08c0.12,0.42 0.16,2.42 0.13,5.29c-0.06,5.11 -0.13,5.44 -1.19,5.65c-0.34,0.07 -0.51,0.21 -0.51,0.43c0,0.3 0.17,0.32 2.43,0.32c2.21,0 2.42,-0.02 2.42,-0.31c0,-0.22 -0.22,-0.36 -0.77,-0.51c-0.68,-0.18 -0.79,-0.28 -0.95,-0.86c-0.21,-0.73 -0.25,-8.51 -0.05,-8.48c0.07,0 0.74,0.72 1.49,1.59c0.75,0.87 2.8,3.16 4.56,5.08c2.75,3.01 3.26,3.49 3.69,3.49l0.51,0l0.05,-6.12c0.03,-4.34 0.1,-6.17 0.25,-6.31c0.11,-0.11 0.46,-0.26 0.78,-0.32c0.33,-0.07 0.57,-0.22 0.57,-0.37c0,-0.21 -0.43,-0.26 -2.38,-0.3c-2.29,-0.05 -2.38,-0.04 -2.38,0.3c0,0.26 0.11,0.35 0.42,0.35c0.24,0 0.65,0.19 0.91,0.42l0.49,0.41l0.05,4.16c0.04,2.35 -0.01,4.16 -0.09,4.16c-0.09,0 -0.62,-0.53 -1.18,-1.17c-0.56,-0.64 -2.16,-2.4 -3.55,-3.92c-1.4,-1.52 -2.92,-3.2 -3.39,-3.74l-0.85,-0.98l-1.77,-0.01c-1.67,-0.02 -1.78,0 -1.78,0.33zm18.19,0c0,0.26 0.11,0.34 0.48,0.34c0.27,0 0.64,0.11 0.83,0.25c0.31,0.23 0.34,0.53 0.39,5.3c0.06,5.97 0.01,6.3 -1.02,6.47c-0.51,0.08 -0.68,0.19 -0.68,0.43c0,0.3 0.17,0.32 2.6,0.32c2.48,0 2.59,-0.01 2.59,-0.34c0,-0.25 -0.11,-0.35 -0.4,-0.35c-0.22,0 -0.55,-0.11 -0.73,-0.24c-0.32,-0.23 -0.34,-0.53 -0.39,-5.69c-0.05,-5.28 -0.04,-5.45 0.3,-5.8c0.2,-0.19 0.55,-0.35 0.79,-0.35c0.32,0 0.43,-0.09 0.43,-0.34c0,-0.33 -0.11,-0.35 -2.59,-0.35c-2.49,0 -2.6,0.02 -2.6,0.35zm18.13,0c0.06,0.21 0.24,0.34 0.48,0.34c0.21,0 0.55,0.18 0.76,0.4c0.21,0.23 1.39,3.07 2.68,6.43l2.31,6.03l0.6,0.05l0.6,0.05l1.62,-4.28c0.89,-2.35 1.72,-4.46 1.83,-4.69c0.2,-0.39 0.24,-0.33 0.76,1.03c0.3,0.8 1.11,2.91 1.8,4.69l1.24,3.24l0.55,0c0.3,0 0.59,-0.11 0.64,-0.23c0.04,-0.13 0.84,-2.17 1.76,-4.53c0.93,-2.37 1.95,-4.99 2.28,-5.83c0.74,-1.9 0.89,-2.14 1.49,-2.35c0.26,-0.09 0.48,-0.28 0.48,-0.43c0,-0.23 -0.32,-0.27 -2.08,-0.27c-1.96,0 -2.08,0.02 -2.08,0.35c0,0.25 0.12,0.34 0.42,0.34c0.67,0 0.97,0.18 0.97,0.6c0,0.35 -3.3,9.3 -3.51,9.51c-0.12,0.12 -3.1,-8.2 -3.21,-8.97c-0.1,-0.75 0.22,-1.14 0.95,-1.14c0.28,0 0.4,-0.1 0.4,-0.34c0,-0.33 -0.12,-0.35 -2.69,-0.35c-2.57,0 -2.68,0.02 -2.68,0.35c0,0.19 0.11,0.34 0.27,0.34c0.54,0 1.25,0.52 1.44,1.05c0.26,0.75 0.06,1.52 -1.5,5.66l-1.32,3.53l-0.29,-0.68c-0.15,-0.37 -0.97,-2.55 -1.81,-4.85c-1.65,-4.51 -1.67,-4.71 -0.58,-4.71c0.38,0 0.5,-0.08 0.5,-0.34c0,-0.33 -0.12,-0.35 -2.59,-0.35c-2.49,0 -2.57,0.01 -2.49,0.35zm35.08,0.12c0,0 0,0.23 0.03,0.3c0.03,0.06 0.21,0.09 0.21,0.09c0.12,0.03 0.23,0.06 0.33,0.08c0.53,0.13 0.89,0.22 1.04,0.57c0.1,0.23 0.11,1.03 0.11,5.36c0,4.56 0,5.12 -0.12,5.43c-0.16,0.37 -0.45,0.57 -1.11,0.76c0,0 -0.3,0.08 -0.38,0.15c-0.08,0.08 -0.09,0.24 -0.09,0.24c0,0 -0.01,0.15 0.06,0.23c0.07,0.07 0.25,0.03 0.25,0.03l1.73,0.01l2.88,0.02c0,0 0.11,0.02 0.17,-0.06c0.06,-0.08 0.05,-0.23 0.05,-0.23c0,0 0,-0.16 -0.08,-0.24c-0.07,-0.07 -0.37,-0.14 -0.37,-0.14c-0.65,-0.16 -0.98,-0.37 -1.13,-0.71c-0.11,-0.25 -0.12,-0.93 -0.13,-2.34l0,-2.07c0.07,0.04 0.14,0.09 0.21,0.14c0.33,0.23 0.74,0.52 2.29,0.56c1.88,0.06 3.01,-0.78 3.68,-1.75c0.67,-0.97 0.93,-2.49 0.44,-4.12c-0.49,-1.62 -1.94,-2.6 -3.97,-2.71c-1.06,-0.05 -2.6,0 -3.47,0.04l-0.24,0.01c-0.78,0.04 -1.72,0.11 -2.19,0.16l0,0c-0.12,0.01 -0.14,0.01 -0.17,0.06c-0.04,0.04 -0.03,0.13 -0.03,0.13zm7.63,6.36c0.76,-0.71 0.77,-1.82 0.77,-2.53c-0.08,-1.11 -0.52,-3.25 -3.06,-3.25c-0.6,-0.04 -1.81,0.07 -1.85,0.89c-0.03,0.15 -0.05,1.16 -0.04,2.73l0.01,2.49l0.26,0.14l0.02,0c0.14,0.08 0.32,0.17 0.64,0.24c1.01,0.19 2.49,0 3.25,-0.71zm-15.89,-6.61c0.19,-0.07 0.31,-0.12 0.31,-0.12c0,0 0.28,-0.12 0.37,0c0.03,0.04 0.13,0.3 0.39,0.95c0.05,0.13 0.1,0.27 0.16,0.43c0.38,0.97 0.92,2.36 1.21,3.1c0.28,0.73 0.84,2.17 1.25,3.21c0.4,1.04 0.92,2.37 1.15,2.96c0.23,0.59 0.52,1.2 0.6,1.32c0.04,0.05 0.08,0.12 0.13,0.19c0.18,0.3 0.41,0.69 0.89,0.77c0,0 0.37,0.06 0.43,0.12c0.06,0.06 0.07,0.16 0.07,0.16l0,0.2c0,0 -0.01,0.06 -0.04,0.1c-0.03,0.04 -0.14,0.03 -0.14,0.03l-2.89,0l-2.05,0.02c0,0 -0.07,0 -0.11,-0.03c-0.04,-0.04 -0.06,-0.12 -0.06,-0.12l0,-0.15c0,0 -0.02,-0.12 0.06,-0.22c0.08,-0.09 0.41,-0.11 0.41,-0.11c0.62,-0.05 0.87,-0.58 1,-0.85c0,-0.02 0.01,-0.04 0.02,-0.06c0.14,-0.28 0.09,-0.46 -0.52,-1.97c-0.41,-0.99 -0.54,-1.27 -0.64,-1.29c-0.07,-0.02 -1.14,-0.03 -2.38,-0.02l-2.26,0.02l-0.14,0.37c-0.39,1.08 -0.74,2.14 -0.79,2.43c-0.1,0.59 0.04,1.24 0.91,1.35c0,0 0.32,0.05 0.4,0.11c0.09,0.07 0.12,0.23 0.12,0.23l0,0.15c0,0 -0.02,0.08 -0.08,0.12c-0.06,0.05 -0.21,0.04 -0.21,0.04l-2.15,0l-2.09,0.02c0,0 -0.09,0 -0.16,-0.04c-0.06,-0.03 -0.07,-0.1 -0.07,-0.1l0,-0.15c0,0 -0.01,-0.09 0.1,-0.21c0.12,-0.11 0.43,-0.14 0.43,-0.14c0.57,-0.09 0.9,-0.7 1.08,-1.05c0.02,-0.02 0.03,-0.05 0.04,-0.07c0.07,-0.14 0.41,-0.93 0.74,-1.76c0.33,-0.84 0.7,-1.77 0.83,-2.08c0.42,-1.04 0.82,-2.04 1.42,-3.56c0.33,-0.83 0.82,-2.06 1.09,-2.73l0.49,-1.22l0.68,-0.35zm-0.18,2.96c0.11,0.27 0.27,0.66 0.36,0.88c0.09,0.23 0.34,0.85 0.56,1.4c0.22,0.54 0.5,1.2 0.61,1.47c0.11,0.26 0.2,0.49 0.2,0.51c0,0.02 -0.83,0.03 -1.85,0.03c-1.16,0 -1.84,-0.02 -1.84,-0.06c0,-0.04 0.04,-0.17 0.08,-0.3c0.08,-0.2 0.46,-1.28 1.29,-3.69c0.13,-0.37 0.25,-0.7 0.27,-0.73c0.06,-0.1 0.13,0.01 0.32,0.49z" fill-rule="evenodd" id="svg_2"/>
 </mask>
 <g class="layer">
  <title>Layer 1</title>
  <text fill="#ffffff" font-family="Cursive" font-size="7" id="svg_5" stroke-width="0" style="cursor: move;" text-anchor="middle" transform="matrix(2.82837 0 0 1.86252 -150.958 -5.65584)" x="70.89" xml:space="preserve" y="9.3">GlennSwap</text>
 </g>
</svg>